<!DOCTYPE svg PUBLIC "-//W3C//DTD SVG 1.1//EN" "http://www.w3.org/Graphics/SVG/1.1/DTD/svg11.dtd">
<!-- Uploaded to: SVG Repo, www.svgrepo.com, Transformed by: SVG Repo Mixer Tools -->
<svg fill="#000000" version="1.1" id="Layer_1" xmlns="http://www.w3.org/2000/svg" xmlns:xlink="http://www.w3.org/1999/xlink" viewBox="0 0 512 512" xml:space="preserve" width="800px" height="800px">
<g id="SVGRepo_bgCarrier" stroke-width="0"/>
<g id="SVGRepo_tracerCarrier" stroke-linecap="round" stroke-linejoin="round"/>
<g id="SVGRepo_iconCarrier"> <g> <g> <g> <rect x="128" y="181.365" width="256" height="64"/> <path d="M469.376,10.688H42.624C19.115,10.688,0,29.803,0,53.312v405.376c0,23.509,19.115,42.624,42.624,42.624h426.752 c23.509,0,42.624-19.115,42.624-42.624V53.312C512,29.803,492.885,10.688,469.376,10.688z M234.667,74.688h42.667 c11.797,0,21.333,9.557,21.333,21.333s-9.536,21.333-21.333,21.333h-42.667c-11.797,0-21.333-9.557-21.333-21.333 S222.869,74.688,234.667,74.688z M106.667,74.688h42.667c11.797,0,21.333,9.557,21.333,21.333s-9.536,21.333-21.333,21.333 h-42.667c-11.797,0-21.333-9.557-21.333-21.333S94.869,74.688,106.667,74.688z M213.333,416.021H106.667 c-11.797,0-21.333-9.557-21.333-21.333s9.536-21.333,21.333-21.333h106.667c11.797,0,21.333,9.557,21.333,21.333 S225.131,416.021,213.333,416.021z M85.333,330.688c0-11.776,9.536-21.333,21.333-21.333h170.667 c11.797,0,21.333,9.557,21.333,21.333s-9.536,21.333-21.333,21.333H106.667C94.869,352.021,85.333,342.464,85.333,330.688z M405.333,416.021H298.667c-11.797,0-21.333-9.557-21.333-21.333s9.536-21.333,21.333-21.333h106.667 c11.797,0,21.333,9.557,21.333,21.333S417.131,416.021,405.333,416.021z M405.333,352.021h-42.667 c-11.797,0-21.333-9.557-21.333-21.333s9.536-21.333,21.333-21.333h42.667c11.797,0,21.333,9.557,21.333,21.333 S417.131,352.021,405.333,352.021z M426.667,266.688c0,11.776-9.536,21.333-21.333,21.333H106.667 c-11.797,0-21.333-9.557-21.333-21.333V160.021c0-11.776,9.536-21.333,21.333-21.333h298.667 c11.797,0,21.333,9.557,21.333,21.333V266.688z M405.333,117.355h-42.667c-11.797,0-21.333-9.557-21.333-21.333 s9.536-21.333,21.333-21.333h42.667c11.797,0,21.333,9.557,21.333,21.333S417.131,117.355,405.333,117.355z"/> </g> </g> </g> </g>
</svg>